<?xml version="1.0" encoding="utf-8"?>
<!-- Generator: Adobe Illustrator 16.0.0, SVG Export Plug-In . SVG Version: 6.00 Build 0)  -->
<!DOCTYPE svg PUBLIC "-//W3C//DTD SVG 1.1//EN" "http://www.w3.org/Graphics/SVG/1.1/DTD/svg11.dtd">
<svg version="1.1" id="Layer_1" xmlns="http://www.w3.org/2000/svg" xmlns:xlink="http://www.w3.org/1999/xlink" x="0px" y="0px"
	 width="83px" height="80px" viewBox="0 0 83 80" enable-background="new 0 0 83 80" xml:space="preserve">
<path fill="#212721" d="M11.586,21.001v17.353v31.234c0,5.75,4.662,10.412,10.412,10.412h38.003c5.75,0,10.412-4.662,10.412-10.412
	V38.354V21.001H11.586z M68.59,38.237V69.77c0,4.637-3.771,8.409-8.408,8.409H21.817c-4.636,0-8.408-3.772-8.408-8.409V38.237
	V22.821h7.533v5.256h2.102v-5.256h35.911v5.256h2.104v-5.256h7.531V38.237z"/>
<path fill="#212721" d="M43.588,57.314c0,1.346-0.244,2.539-0.732,3.58c-0.487,1.043-1.153,1.92-1.998,2.633
	c-0.844,0.711-1.82,1.246-2.928,1.603c-1.108,0.356-2.295,0.533-3.561,0.533c-1.24,0-2.407-0.157-3.501-0.476
	c-1.095-0.315-2.077-0.804-2.948-1.464c-0.87-0.659-1.596-1.51-2.176-2.552s-0.963-2.275-1.147-3.699l-0.04-0.316l2.651-0.909v0.276
	c0,2.349,0.659,4.082,1.978,5.202c1.319,1.121,3.047,1.683,5.183,1.683c1.266,0,2.321-0.185,3.166-0.555
	c0.843-0.369,1.516-0.844,2.017-1.425c0.501-0.579,0.857-1.212,1.068-1.899c0.211-0.685,0.317-1.33,0.317-1.938
	c0-1.398-0.257-2.499-0.772-3.305c-0.514-0.805-1.154-1.409-1.919-1.819c-0.765-0.409-1.576-0.666-2.433-0.772
	c-0.857-0.104-1.642-0.157-2.354-0.157h-0.653c-0.33,0-0.686,0.007-1.068,0.02c-0.383,0.015-0.752,0.027-1.108,0.04
	c-0.356,0.014-0.613,0.033-0.771,0.059v-2.414c0.131,0.055,0.388,0.088,0.771,0.1c0.382,0.014,0.785,0.02,1.207,0.02h1.543
	c0.422,0,1.029-0.045,1.82-0.138s1.583-0.329,2.374-0.712s1.477-0.949,2.058-1.701c0.579-0.753,0.87-1.801,0.87-3.146
	c0-0.95-0.178-1.755-0.534-2.414c-0.356-0.658-0.825-1.199-1.405-1.622c-0.58-0.421-1.24-0.732-1.978-0.93
	c-0.739-0.197-1.491-0.296-2.255-0.296c-1.24,0-2.275,0.211-3.106,0.633c-0.831,0.422-1.497,0.943-1.998,1.563
	c-0.501,0.62-0.858,1.267-1.068,1.938c-0.212,0.673-0.317,1.246-0.317,1.721v0.355l-2.769-0.75c0.184-0.766,0.461-1.59,0.831-2.474
	c0.369-0.883,0.896-1.701,1.583-2.453c0.686-0.752,1.588-1.378,2.71-1.879c1.121-0.501,2.525-0.752,4.214-0.752
	c1.16,0,2.261,0.145,3.304,0.435c1.041,0.29,1.951,0.739,2.73,1.345c0.776,0.608,1.397,1.379,1.857,2.315
	c0.461,0.936,0.693,2.05,0.693,3.343c0,0.976-0.212,1.854-0.635,2.631c-0.421,0.779-0.956,1.443-1.602,1.998
	c-0.646,0.554-1.371,1.003-2.176,1.346c-0.805,0.344-1.589,0.553-2.354,0.633c0.871,0.053,1.747,0.225,2.631,0.514
	c0.884,0.291,1.675,0.72,2.374,1.287c0.699,0.566,1.267,1.272,1.701,2.117C43.369,55.113,43.588,56.128,43.588,57.314"/>
<path fill="#212721" d="M53.479,64.951V42.24c-0.344,0.344-0.931,0.621-1.76,0.832c-0.832,0.211-1.748,0.315-2.75,0.315h-0.595
	v-2.136c1.028,0,1.925-0.139,2.69-0.416c0.765-0.277,1.346-0.679,1.742-1.206c0.209-0.29,0.375-0.614,0.493-0.97
	s0.179-0.837,0.179-1.444v-0.198h2.414v27.933H53.479L53.479,64.951z"/>
</svg>
