<?xml version="1.0" encoding="utf-8"?>
<!-- Generator: Adobe Illustrator 16.0.0, SVG Export Plug-In . SVG Version: 6.00 Build 0)  -->
<!DOCTYPE svg PUBLIC "-//W3C//DTD SVG 1.1//EN" "http://www.w3.org/Graphics/SVG/1.1/DTD/svg11.dtd">
<svg version="1.1" xmlns="http://www.w3.org/2000/svg" xmlns:xlink="http://www.w3.org/1999/xlink" x="0px" y="0px" width="83px"
	 height="80.859px" viewBox="0 0 83 80.859" enable-background="new 0 0 83 80.859" xml:space="preserve">
<g id="Layer_5">
	<path fill="#212721" d="M41.292,1.858c6.798,0,12.328,5.611,12.328,12.508c0,6.897-5.53,12.509-12.328,12.509
		s-12.328-5.611-12.328-12.509C28.964,7.47,34.494,1.858,41.292,1.858 M41.292-0.142c-7.913,0-14.328,6.495-14.328,14.508
		s6.415,14.509,14.328,14.509S55.62,22.379,55.62,14.366S49.205-0.142,41.292-0.142"/>
	<path fill="#212721" d="M56.221,39.185c6.111,0,11.889,5.662,11.889,11.651v28.023H14.462V50.853
		c0-5.998,5.781-11.668,11.896-11.668H56.221 M56.221,37.185H26.358c-7.115,0-13.896,6.554-13.896,13.668v30.007h57.647V50.836
		C70.109,43.721,63.336,37.185,56.221,37.185"/>
	<path fill="#212721" d="M58.284,69.192H45.998v-7.507h12.286V69.192z M60.284,59.686H43.998v11.507h16.286V59.686z"/>
</g>
<g id="Layer_6" display="none">
	<rect x="24.441" y="25.149" display="inline" fill="#212721" width="13.923" height="2.004"/>
	<rect x="24.441" y="13.415" display="inline" fill="#212721" width="32.701" height="2.043"/>
	<rect x="24.441" y="30.953" display="inline" fill="#212721" width="13.923" height="2.004"/>
	<rect x="24.441" y="36.757" display="inline" fill="#212721" width="13.923" height="2.004"/>
	<rect x="24.441" y="42.561" display="inline" fill="#212721" width="13.923" height="2.005"/>
	<rect x="24.441" y="48.365" display="inline" fill="#212721" width="32.701" height="2.004"/>
	<rect x="24.441" y="54.168" display="inline" fill="#212721" width="32.701" height="2.004"/>
	<rect x="24.441" y="59.972" display="inline" fill="#212721" width="32.701" height="2.004"/>
	<rect x="24.441" y="65.776" display="inline" fill="#212721" width="32.701" height="2.004"/>
	<path display="inline" fill="#212721" d="M42.808,44.506h14.067V25.207H42.808V44.506z M44.624,27.135h10.435v15.443H44.624V27.135
		z"/>
	<path display="inline" fill="#212721" d="M14.352,77.965h53.487v-75H14.352V77.965z M65.507,75.53H16.684V5.401h48.823V75.53z"/>
</g>
</svg>
