<?xml version="1.0" encoding="utf-8"?>
<!-- Generator: Adobe Illustrator 16.0.0, SVG Export Plug-In . SVG Version: 6.00 Build 0)  -->
<!DOCTYPE svg PUBLIC "-//W3C//DTD SVG 1.1//EN" "http://www.w3.org/Graphics/SVG/1.1/DTD/svg11.dtd">
<svg version="1.1" id="Layer_1" xmlns="http://www.w3.org/2000/svg" xmlns:xlink="http://www.w3.org/1999/xlink" x="0px" y="0px"
	 width="83px" height="80.859px" viewBox="0 0 83 80.859" enable-background="new 0 0 83 80.859" xml:space="preserve">
<g id="Layer_5" display="none">
	<path display="inline" fill="#212721" d="M41.292,1.858c6.798,0,12.328,5.61,12.328,12.508s-5.53,12.509-12.328,12.509
		s-12.328-5.61-12.328-12.509C28.964,7.47,34.494,1.858,41.292,1.858 M41.292-0.142c-7.913,0-14.328,6.495-14.328,14.508
		s6.415,14.509,14.328,14.509S55.62,22.379,55.62,14.366S49.205-0.142,41.292-0.142"/>
	<path display="inline" fill="#212721" d="M56.221,39.185c6.111,0,11.889,5.662,11.889,11.65v28.023H14.462V50.853
		c0-5.998,5.781-11.668,11.896-11.668H56.221 M56.221,37.185H26.358c-7.115,0-13.896,6.554-13.896,13.668V80.86h57.647V50.836
		C70.109,43.721,63.336,37.185,56.221,37.185"/>
	<path display="inline" fill="#212721" d="M58.284,69.192H45.998v-7.507h12.286V69.192z M60.284,59.686H43.998v11.507h16.286V59.686
		z"/>
</g>
<g id="Layer_6" display="none">
	<rect x="24.441" y="25.149" display="inline" fill="#212721" width="13.923" height="2.004"/>
	<rect x="24.441" y="13.415" display="inline" fill="#212721" width="32.702" height="2.043"/>
	<rect x="24.441" y="30.953" display="inline" fill="#212721" width="13.923" height="2.004"/>
	<rect x="24.441" y="36.757" display="inline" fill="#212721" width="13.923" height="2.004"/>
	<rect x="24.441" y="42.561" display="inline" fill="#212721" width="13.923" height="2.005"/>
	<rect x="24.441" y="48.365" display="inline" fill="#212721" width="32.702" height="2.004"/>
	<rect x="24.441" y="54.168" display="inline" fill="#212721" width="32.702" height="2.004"/>
	<rect x="24.441" y="59.972" display="inline" fill="#212721" width="32.702" height="2.004"/>
	<rect x="24.441" y="65.776" display="inline" fill="#212721" width="32.702" height="2.004"/>
	<path display="inline" fill="#212721" d="M42.809,44.506h14.066V25.207H42.809V44.506z M44.624,27.135h10.435v15.443H44.624V27.135
		z"/>
	<path display="inline" fill="#212721" d="M14.352,77.965h53.487v-75H14.352V77.965z M65.507,75.53H16.684V5.401h48.823V75.53z"/>
</g>
<g id="Layer_3" display="none">
	<path display="inline" fill="#212721" d="M15.895,10.316c-1.341,0-2.681,0.511-3.703,1.534c-2.046,2.046-2.046,5.361,0,7.406
		c1.023,1.023,2.363,1.534,3.704,1.534c1.34,0,2.681-0.511,3.704-1.534c2.045-2.045,2.045-5.359-0.001-7.405
		C18.576,10.828,17.234,10.316,15.895,10.316 M18.188,17.846c-0.612,0.611-1.427,0.949-2.293,0.949
		c-0.865,0-1.679-0.338-2.292-0.949c-0.612-0.611-0.949-1.427-0.949-2.292s0.337-1.681,0.949-2.292s1.426-0.948,2.291-0.948
		c0.866,0,1.681,0.337,2.293,0.948C19.451,14.526,19.452,16.583,18.188,17.846"/>
	<path display="inline" fill="#212721" d="M75.038,40.123L38.879,3.966H12.946c-2.355,0-4.487,0.953-6.03,2.497L6.914,6.464
		c-1.543,1.543-2.498,3.677-2.498,6.03l0.001,25.935l36.158,36.158c1.586,1.586,3.665,2.379,5.743,2.379
		c2.08,0,4.158-0.793,5.744-2.379L75.038,51.61C78.21,48.438,78.21,43.296,75.038,40.123 M72.926,50.362L50.814,72.474
		c-1.256,1.255-2.924,1.945-4.698,1.945s-3.444-0.69-4.699-1.945L6.535,37.591V13.119c0-1.88,0.583-3.701,1.912-5.03l0.02-0.02
		c1.326-1.316,3.294-1.925,5.165-1.925h24.472l34.822,34.82C75.516,43.557,75.516,47.771,72.926,50.362"/>
</g>
<g id="Layer_4" display="none">
	<path display="inline" fill="#212721" d="M41.125,9.25c16.77,0,30.41,13.643,30.41,30.41c0,16.769-13.643,30.41-30.41,30.41
		c-16.768,0-30.41-13.644-30.41-30.41C10.715,22.892,24.357,9.25,41.125,9.25 M41.125,7.16c-17.95,0-32.5,14.551-32.5,32.5
		s14.55,32.5,32.5,32.5c17.949,0,32.5-14.551,32.5-32.5S59.074,7.16,41.125,7.16"/>
	<path display="inline" fill="#212721" d="M58.368,22.417L48.227,46.762L23.882,56.904l10.142-24.346L58.368,22.417z M62.559,18.227
		L32.298,30.833L19.693,61.094l30.259-12.604L62.559,18.227z"/>
	<path display="inline" fill="#212721" d="M41.125,36.421c1.786,0,3.239,1.453,3.239,3.239s-1.453,3.239-3.239,3.239
		s-3.239-1.453-3.239-3.239S39.339,36.421,41.125,36.421 M41.125,34.203c-3.014,0-5.457,2.444-5.457,5.457
		c0,3.014,2.443,5.458,5.457,5.458c3.014,0,5.457-2.443,5.457-5.458C46.582,36.646,44.139,34.203,41.125,34.203"/>
</g>
<g id="Layer_7">
	<path fill="#212721" d="M41.484,53.302c10.636,0.035,12.268,0.128,12.484,0.151c0.205,0.031,0.414,0.055,0.623,0.074
		c-0.073,1.765-0.394,4.104-0.396,4.129l-0.008,0.06l-0.006,0.059c0,0.01-0.13,1.03-0.642,1.068
		c-0.528,0.041-1.172,0.097-1.896,0.161c-2.604,0.229-6.17,0.542-9.338,0.542c-0.332,0-0.657-0.004-0.977-0.013h-0.047h-0.046
		c-0.32,0.009-0.646,0.013-0.976,0.013c-3.167,0-6.732-0.312-9.335-0.542c-0.725-0.064-1.369-0.12-1.899-0.161
		c-0.505-0.038-0.636-1.066-0.637-1.066l0,0l-0.004-0.061l-0.009-0.062c-0.003-0.023-0.324-2.363-0.397-4.127
		c0.207-0.021,0.416-0.043,0.594-0.07c0.246-0.027,1.877-0.12,12.509-0.155h0.2H41.484 M41.487,51.302h-0.203h-0.2
		c-2.859,0.009-11.946,0.043-12.789,0.176c-1.109,0.172-2.372-0.062-2.322,1.856c0.054,1.92,0.424,4.595,0.424,4.595
		s0.209,2.735,2.48,2.909c2.416,0.184,7.231,0.708,11.385,0.708c0.346,0,0.687-0.004,1.022-0.013
		c0.335,0.009,0.677,0.013,1.022,0.013c4.153,0,8.971-0.524,11.387-0.708c2.271-0.174,2.481-2.909,2.481-2.909
		s0.369-2.675,0.425-4.595c0.049-1.918-1.216-1.685-2.322-1.856C53.436,51.344,44.35,51.309,41.487,51.302"/>
	<path fill="#212721" d="M54.732,24.859c2.973,0,6.711,1.333,8.356,4.304l8.354,15.216c1.457,2.646,2.688,7.442,2.688,10.472v24.01
		h-7.008l-1.646-6.803l-0.371-1.529h-1.572H19.037h-1.574l-0.37,1.529l-1.645,6.803H8.441V54.849c0-3.027,1.231-7.823,2.687-10.474
		l8.332-15.172c2.329-3.779,6.246-4.346,8.378-4.346L54.732,24.859 M54.732,22.859H27.838c-3.353,0-7.595,1.222-10.108,5.341
		L9.375,43.414c-1.614,2.938-2.934,8.085-2.934,11.436v26.01h10.581l2.015-8.332h44.495l2.017,8.332h10.582v-26.01
		c0-3.352-1.32-8.499-2.936-11.437l-8.354-15.214C62.689,24.317,58.086,22.859,54.732,22.859"/>
	<path fill="#212721" d="M71.395,41.964l-0.281-1.979l0.435-0.062v-3.934c0-0.508,0.216-0.984,0.586-1.31
		c0.373-0.324,0.872-0.472,1.38-0.401l6.104,0.846c0.948,0.133,1.69,0.985,1.69,1.941v1.781c0,0.955-0.742,1.809-1.688,1.943
		L71.395,41.964z M73.547,36.3v3.337l5.792-0.827l-0.03-1.745L73.547,36.3z"/>
	<path fill="#212721" d="M11.177,41.965l-8.226-1.176c-0.945-0.134-1.686-0.987-1.686-1.943v-1.78c0-0.957,0.742-1.809,1.689-1.941
		l6.108-0.847c0.507-0.07,1.007,0.077,1.379,0.401c0.372,0.325,0.586,0.803,0.586,1.311v3.936l0.432,0.06L11.177,41.965z
		 M9.026,36.302l-5.797,0.804l0.035,1.74l5.762,0.801V36.302z"/>
	<path fill="#212721" d="M59.949,55.066l-0.066-2l0.307-0.007c0.756-0.015,2.328-0.044,5.166-0.363
		c2.254-0.253,3.496-0.633,4.24-0.859l0.32,0.947l0.264,0.965c-0.811,0.247-2.164,0.661-4.602,0.935
		c-2.93,0.33-4.564,0.361-5.35,0.377L59.949,55.066z"/>
	
		<rect x="67.856" y="51.948" transform="matrix(-0.1108 -0.9938 0.9938 -0.1108 24.9558 128.2226)" fill="#212721" width="3.967" height="1.999"/>
	<path fill="#212721" d="M22.623,55.066l-0.279-0.006c-0.785-0.016-2.42-0.047-5.35-0.377c-2.449-0.274-3.858-0.705-4.615-0.938
		l0.571-1.917l0.015,0.005c0.744,0.228,1.988,0.608,4.252,0.863c2.838,0.319,4.41,0.349,5.165,0.363l0.308,0.007L22.623,55.066z"/>
	
		<rect x="11.737" y="50.965" transform="matrix(-0.9939 -0.1104 0.1104 -0.9939 19.5499 106.9814)" fill="#212721" width="1.999" height="3.969"/>
</g>
</svg>
