<?xml version="1.0" encoding="utf-8"?>
<!-- Generator: Adobe Illustrator 16.0.0, SVG Export Plug-In . SVG Version: 6.00 Build 0)  -->
<!DOCTYPE svg PUBLIC "-//W3C//DTD SVG 1.1//EN" "http://www.w3.org/Graphics/SVG/1.1/DTD/svg11.dtd">
<svg version="1.1" id="Layer_1" xmlns="http://www.w3.org/2000/svg" xmlns:xlink="http://www.w3.org/1999/xlink" x="0px" y="0px"
	 width="83px" height="80.859px" viewBox="0 0 83 80.859" enable-background="new 0 0 83 80.859" xml:space="preserve">
<g id="Layer_5" display="none">
	<path display="inline" fill="#212721" d="M41.292,1.858c6.798,0,12.328,5.61,12.328,12.508s-5.53,12.509-12.328,12.509
		s-12.328-5.61-12.328-12.509C28.964,7.47,34.494,1.858,41.292,1.858 M41.292-0.142c-7.913,0-14.328,6.495-14.328,14.508
		s6.415,14.509,14.328,14.509S55.62,22.379,55.62,14.366S49.205-0.142,41.292-0.142"/>
	<path display="inline" fill="#212721" d="M56.221,39.185c6.111,0,11.889,5.662,11.889,11.65v28.023H14.462V50.853
		c0-5.998,5.781-11.668,11.896-11.668H56.221 M56.221,37.185H26.358c-7.115,0-13.896,6.554-13.896,13.668V80.86h57.647V50.836
		C70.109,43.721,63.336,37.185,56.221,37.185"/>
	<path display="inline" fill="#212721" d="M58.284,69.192H45.998v-7.507h12.286V69.192z M60.284,59.686H43.998v11.507h16.286V59.686
		z"/>
</g>
<g id="Layer_6" display="none">
	<rect x="24.441" y="25.149" display="inline" fill="#212721" width="13.923" height="2.004"/>
	<rect x="24.441" y="13.415" display="inline" fill="#212721" width="32.702" height="2.043"/>
	<rect x="24.441" y="30.953" display="inline" fill="#212721" width="13.923" height="2.004"/>
	<rect x="24.441" y="36.757" display="inline" fill="#212721" width="13.923" height="2.004"/>
	<rect x="24.441" y="42.561" display="inline" fill="#212721" width="13.923" height="2.005"/>
	<rect x="24.441" y="48.365" display="inline" fill="#212721" width="32.702" height="2.004"/>
	<rect x="24.441" y="54.168" display="inline" fill="#212721" width="32.702" height="2.004"/>
	<rect x="24.441" y="59.972" display="inline" fill="#212721" width="32.702" height="2.004"/>
	<rect x="24.441" y="65.776" display="inline" fill="#212721" width="32.702" height="2.004"/>
	<path display="inline" fill="#212721" d="M42.809,44.506h14.066V25.207H42.809V44.506z M44.624,27.135h10.435v15.443H44.624V27.135
		z"/>
	<path display="inline" fill="#212721" d="M14.352,77.965h53.487v-75H14.352V77.965z M65.507,75.53H16.684V5.401h48.823V75.53z"/>
</g>
<g id="Layer_3">
	<path fill="#212721" d="M15.895,14.21c-1.341,0-2.681,0.511-3.703,1.534c-2.046,2.046-2.046,5.361,0,7.406
		c1.023,1.023,2.363,1.534,3.704,1.534c1.34,0,2.681-0.511,3.704-1.534c2.045-2.045,2.045-5.359-0.001-7.405
		C18.576,14.721,17.234,14.21,15.895,14.21 M18.188,21.74c-0.612,0.611-1.427,0.949-2.293,0.949c-0.865,0-1.679-0.338-2.292-0.949
		c-0.612-0.611-0.949-1.427-0.949-2.292s0.337-1.681,0.949-2.292s1.426-0.948,2.291-0.948c0.866,0,1.681,0.337,2.293,0.948
		C19.451,18.42,19.452,20.476,18.188,21.74"/>
	<path fill="#212721" d="M75.038,44.016L38.879,7.859H12.946c-2.355,0-4.487,0.953-6.03,2.497l-0.002,0.001
		c-1.543,1.543-2.498,3.677-2.498,6.03l0.001,25.935L40.575,78.48c1.586,1.586,3.665,2.379,5.743,2.379
		c2.08,0,4.158-0.793,5.744-2.379l22.976-22.977C78.21,52.332,78.21,47.189,75.038,44.016 M72.926,54.256L50.814,76.368
		c-1.256,1.255-2.924,1.945-4.698,1.945s-3.444-0.69-4.699-1.945L6.535,41.484V17.012c0-1.88,0.583-3.701,1.912-5.03l0.02-0.02
		c1.326-1.316,3.294-1.925,5.165-1.925h24.472l34.822,34.82C75.516,47.451,75.516,51.665,72.926,54.256"/>
</g>
</svg>
